<?xml version="1.0" encoding="UTF-8"?>
<svg id="Layer_1" data-name="Layer 1" xmlns="http://www.w3.org/2000/svg" viewBox="0 0 801 481">
  <defs>
    <style>
      .cls-1 {
        fill: none;
      }

      .cls-1, .cls-2 {
        stroke: #231f20;
        stroke-miterlimit: 10;
      }

      .cls-2 {
        fill: #fff;
      }
    </style>
  </defs>
  <rect class="cls-2" x=".5" y=".5" width="800" height="480" rx="10.13" ry="10.13"/>
  <path class="cls-1" d="M10.5.5h780c5.52,0,10,4.48,10,10v4H.5v-4C.5,4.98,4.98.5,10.5.5Z"/>
  <path class="cls-1" d="M10.5,466.5h780c5.52,0,10,4.48,10,10v4H.5v-4c0-5.52,4.48-10,10-10Z" transform="translate(801 947) rotate(180)"/>
  <rect class="cls-1" x=".5" y="14.5" width="8" height="452"/>
  <rect class="cls-1" x="792.5" y="14.5" width="8" height="452"/>
  <rect class="cls-1" x="8.5" y="14.5" width="784" height="452"/>
  <g>
    <rect class="cls-1" x="8.5" y="14.5" width="153.6" height="87.2"/>
    <line class="cls-1" x1="18.94" y1="24.94" x2="8.5" y2="14.5"/>
    <line class="cls-1" x1="162.1" y1="14.5" x2="151.59" y2="25.01"/>
    <line class="cls-1" x1="18.94" y1="25.01" x2="151.59" y2="25.01"/>
  </g>
  <g>
    <rect class="cls-1" x="638.9" y="14.5" width="153.6" height="87.2"/>
    <line class="cls-1" x1="649.34" y1="24.94" x2="638.9" y2="14.5"/>
    <line class="cls-1" x1="792.5" y1="14.5" x2="781.99" y2="25.01"/>
    <line class="cls-1" x1="649.34" y1="25.01" x2="781.99" y2="25.01"/>
  </g>
  <g>
    <rect class="cls-1" x="166.1" y="14.5" width="153.6" height="87.2"/>
    <line class="cls-1" x1="176.54" y1="24.94" x2="166.1" y2="14.5"/>
    <line class="cls-1" x1="319.7" y1="14.5" x2="309.19" y2="25.01"/>
    <line class="cls-1" x1="176.54" y1="25.01" x2="309.19" y2="25.01"/>
  </g>
  <g>
    <rect class="cls-1" x="323.7" y="14.5" width="153.6" height="87.2"/>
    <line class="cls-1" x1="334.14" y1="24.94" x2="323.7" y2="14.5"/>
    <line class="cls-1" x1="477.3" y1="14.5" x2="466.79" y2="25.01"/>
    <line class="cls-1" x1="334.14" y1="25.01" x2="466.79" y2="25.01"/>
  </g>
  <g>
    <rect class="cls-1" x="481.3" y="14.5" width="153.6" height="87.2"/>
    <line class="cls-1" x1="491.74" y1="24.94" x2="481.3" y2="14.5"/>
    <line class="cls-1" x1="634.9" y1="14.5" x2="624.39" y2="25.01"/>
    <line class="cls-1" x1="491.74" y1="25.01" x2="624.39" y2="25.01"/>
  </g>
  <g>
    <rect class="cls-1" x="8.5" y="106.09" width="153.6" height="87.2"/>
    <line class="cls-1" x1="18.94" y1="116.53" x2="8.5" y2="106.09"/>
    <line class="cls-1" x1="162.1" y1="106.09" x2="151.59" y2="116.59"/>
    <line class="cls-1" x1="18.94" y1="116.59" x2="151.59" y2="116.59"/>
  </g>
  <g>
    <rect class="cls-1" x="8.5" y="197.67" width="153.6" height="87.2"/>
    <line class="cls-1" x1="18.94" y1="208.11" x2="8.5" y2="197.67"/>
    <line class="cls-1" x1="162.1" y1="197.67" x2="151.59" y2="208.18"/>
    <line class="cls-1" x1="18.94" y1="208.18" x2="151.59" y2="208.18"/>
  </g>
  <g>
    <rect class="cls-1" x="8.47" y="289.26" width="153.6" height="87.2"/>
    <line class="cls-1" x1="18.91" y1="299.7" x2="8.47" y2="289.26"/>
    <line class="cls-1" x1="162.07" y1="289.26" x2="151.56" y2="299.77"/>
    <line class="cls-1" x1="18.91" y1="299.77" x2="151.56" y2="299.77"/>
  </g>
  <g>
    <rect class="cls-1" x="8.43" y="380.84" width="153.6" height="87.2"/>
    <line class="cls-1" x1="18.87" y1="391.28" x2="8.43" y2="380.84"/>
    <line class="cls-1" x1="162.03" y1="380.84" x2="151.52" y2="391.35"/>
    <line class="cls-1" x1="18.87" y1="391.35" x2="151.52" y2="391.35"/>
  </g>
  <g>
    <rect class="cls-1" x="166.13" y="106.09" width="153.6" height="87.2"/>
    <line class="cls-1" x1="176.58" y1="116.53" x2="166.13" y2="106.09"/>
    <line class="cls-1" x1="319.73" y1="106.09" x2="309.22" y2="116.59"/>
    <line class="cls-1" x1="176.58" y1="116.59" x2="309.22" y2="116.59"/>
  </g>
  <g>
    <rect class="cls-1" x="166.13" y="197.67" width="153.6" height="87.2"/>
    <line class="cls-1" x1="176.58" y1="208.11" x2="166.13" y2="197.67"/>
    <line class="cls-1" x1="319.73" y1="197.67" x2="309.22" y2="208.18"/>
    <line class="cls-1" x1="176.58" y1="208.18" x2="309.22" y2="208.18"/>
  </g>
  <g>
    <rect class="cls-1" x="166.1" y="289.26" width="153.6" height="87.2"/>
    <line class="cls-1" x1="176.54" y1="299.7" x2="166.1" y2="289.26"/>
    <line class="cls-1" x1="319.7" y1="289.26" x2="309.19" y2="299.77"/>
    <line class="cls-1" x1="176.54" y1="299.77" x2="309.19" y2="299.77"/>
  </g>
  <g>
    <rect class="cls-1" x="166.07" y="380.84" width="153.6" height="87.2"/>
    <line class="cls-1" x1="176.51" y1="391.28" x2="166.07" y2="380.84"/>
    <line class="cls-1" x1="319.67" y1="380.84" x2="309.16" y2="391.35"/>
    <line class="cls-1" x1="176.51" y1="391.35" x2="309.16" y2="391.35"/>
  </g>
  <g>
    <rect class="cls-1" x="323.73" y="106.09" width="153.6" height="87.2"/>
    <line class="cls-1" x1="334.18" y1="116.53" x2="323.73" y2="106.09"/>
    <line class="cls-1" x1="477.33" y1="106.09" x2="466.82" y2="116.59"/>
    <line class="cls-1" x1="334.18" y1="116.59" x2="466.82" y2="116.59"/>
  </g>
  <g>
    <rect class="cls-1" x="323.73" y="197.67" width="153.6" height="87.2"/>
    <line class="cls-1" x1="334.18" y1="208.11" x2="323.73" y2="197.67"/>
    <line class="cls-1" x1="477.33" y1="197.67" x2="466.82" y2="208.18"/>
    <line class="cls-1" x1="334.18" y1="208.18" x2="466.82" y2="208.18"/>
  </g>
  <g>
    <rect class="cls-1" x="323.7" y="289.26" width="153.6" height="87.2"/>
    <line class="cls-1" x1="334.14" y1="299.7" x2="323.7" y2="289.26"/>
    <line class="cls-1" x1="477.3" y1="289.26" x2="466.79" y2="299.77"/>
    <line class="cls-1" x1="334.14" y1="299.77" x2="466.79" y2="299.77"/>
  </g>
  <g>
    <rect class="cls-1" x="323.67" y="380.84" width="153.6" height="87.2"/>
    <line class="cls-1" x1="334.11" y1="391.28" x2="323.67" y2="380.84"/>
    <line class="cls-1" x1="477.27" y1="380.84" x2="466.76" y2="391.35"/>
    <line class="cls-1" x1="334.11" y1="391.35" x2="466.76" y2="391.35"/>
  </g>
  <g>
    <rect class="cls-1" x="481.33" y="106.09" width="153.6" height="87.2"/>
    <line class="cls-1" x1="491.78" y1="116.53" x2="481.33" y2="106.09"/>
    <line class="cls-1" x1="634.93" y1="106.09" x2="624.42" y2="116.59"/>
    <line class="cls-1" x1="491.78" y1="116.59" x2="624.42" y2="116.59"/>
  </g>
  <g>
    <rect class="cls-1" x="481.33" y="197.67" width="153.6" height="87.2"/>
    <line class="cls-1" x1="491.78" y1="208.11" x2="481.33" y2="197.67"/>
    <line class="cls-1" x1="634.93" y1="197.67" x2="624.42" y2="208.18"/>
    <line class="cls-1" x1="491.78" y1="208.18" x2="624.42" y2="208.18"/>
  </g>
  <g>
    <rect class="cls-1" x="481.3" y="289.26" width="153.6" height="87.2"/>
    <line class="cls-1" x1="491.74" y1="299.7" x2="481.3" y2="289.26"/>
    <line class="cls-1" x1="634.9" y1="289.26" x2="624.39" y2="299.77"/>
    <line class="cls-1" x1="491.74" y1="299.77" x2="624.39" y2="299.77"/>
  </g>
  <g>
    <rect class="cls-1" x="481.27" y="380.84" width="153.6" height="87.2"/>
    <line class="cls-1" x1="491.71" y1="391.28" x2="481.27" y2="380.84"/>
    <line class="cls-1" x1="634.87" y1="380.84" x2="624.36" y2="391.35"/>
    <line class="cls-1" x1="491.71" y1="391.35" x2="624.36" y2="391.35"/>
  </g>
  <g>
    <rect class="cls-1" x="638.9" y="106.09" width="153.6" height="87.2"/>
    <line class="cls-1" x1="649.34" y1="116.53" x2="638.9" y2="106.09"/>
    <line class="cls-1" x1="792.5" y1="106.09" x2="781.99" y2="116.59"/>
    <line class="cls-1" x1="649.34" y1="116.59" x2="781.99" y2="116.59"/>
  </g>
  <g>
    <rect class="cls-1" x="638.9" y="197.67" width="153.6" height="87.2"/>
    <line class="cls-1" x1="649.34" y1="208.11" x2="638.9" y2="197.67"/>
    <line class="cls-1" x1="792.5" y1="197.67" x2="781.99" y2="208.18"/>
    <line class="cls-1" x1="649.34" y1="208.18" x2="781.99" y2="208.18"/>
  </g>
  <g>
    <rect class="cls-1" x="638.87" y="289.26" width="153.6" height="87.2"/>
    <line class="cls-1" x1="649.31" y1="299.7" x2="638.87" y2="289.26"/>
    <line class="cls-1" x1="792.47" y1="289.26" x2="781.96" y2="299.77"/>
    <line class="cls-1" x1="649.31" y1="299.77" x2="781.96" y2="299.77"/>
  </g>
  <g>
    <rect class="cls-1" x="638.83" y="380.84" width="153.6" height="87.2"/>
    <line class="cls-1" x1="649.27" y1="391.28" x2="638.83" y2="380.84"/>
    <line class="cls-1" x1="792.43" y1="380.84" x2="781.92" y2="391.35"/>
    <line class="cls-1" x1="649.27" y1="391.35" x2="781.92" y2="391.35"/>
  </g>
</svg>